<?xml version="1.0" encoding="utf-8"?>
<!-- Generator: Adobe Illustrator 27.5.0, SVG Export Plug-In . SVG Version: 6.00 Build 0)  -->
<svg version="1.1" id="Layer_1" xmlns="http://www.w3.org/2000/svg" xmlns:xlink="http://www.w3.org/1999/xlink" x="0px" y="0px"
	 viewBox="0 0 2320 98" style="enable-background:new 0 0 2320 98;" xml:space="preserve">
<style type="text/css">
	.st0{fill:#394856;}
</style>
<path class="st0" d="M2308.8,77.8l-1059-23.6c-5.3,0-9.4-3.5-11.2-8.8l-10-36.5c-1.2-5.3-5.9-8.8-11.2-8.8h-21.8
	c-5.3,0-10,3.5-11.2,8.8L1175,43c-1.2,5.3-6.5,8.8-11.8,8.8h-2.9h-0.6h-2.9c-5.3,0-10-3.5-11.8-8.8l-9.4-34.2
	c-1.2-5.3-5.9-8.8-11.2-8.8h-21.8c-5.3,0-10,3.5-11.2,8.8l-10,36.5c-1.2,5.3-5.9,8.2-11.2,8.8L11.2,77.8C4.7,77.8,0,83.1,0,89.5V98
	h2320v-8.5C2320,83.1,2314.7,77.8,2308.8,77.8z"/>
</svg>
