<?xml version="1.0" encoding="utf-8"?>
<!-- Generator: Adobe Illustrator 27.2.0, SVG Export Plug-In . SVG Version: 6.00 Build 0)  -->
<svg version="1.1" id="Layer_1" xmlns="http://www.w3.org/2000/svg" xmlns:xlink="http://www.w3.org/1999/xlink" x="0px" y="0px"
	 viewBox="0 0 1920 202" style="enable-background:new 0 0 1920 202;" xml:space="preserve">
<style type="text/css">
	.st0{fill:url(#SVGID_1_);}
</style>
<radialGradient id="SVGID_1_" cx="-15407.2412" cy="1178.6128" r="29216.2363" gradientUnits="userSpaceOnUse">
	<stop  offset="0" style="stop-color:#A74A7E"/>
	<stop  offset="1" style="stop-color:#E17FB3"/>
</radialGradient>
<path class="st0" d="M1095.9,104.8l-26.3-96.3c-1.4-5-6-8.5-11.2-8.5h-34.7c-5.2,0-9.8,3.5-11.2,8.5l-24.5,89.5
	c-1.4,5.3-6.3,8.8-11.8,8.5l-15.7-0.8c-0.4,0-0.8,0-1.2,0l-15.7,0.8c-5.4,0.3-10.3-3.3-11.8-8.5L907.4,8.5c-1.4-5-6-8.5-11.2-8.5
	h-34.7c-5.2,0-9.8,3.5-11.2,8.5l-26.3,96.3c-1.3,4.8-5.6,8.3-10.6,8.5L0,155.6L0,202h1920v-46.4l-813.5-42.3
	C1101.5,113.1,1097.2,109.7,1095.9,104.8z"/>
</svg>
