<?xml version="1.0" encoding="utf-8"?>
<!-- Generator: Adobe Illustrator 27.5.0, SVG Export Plug-In . SVG Version: 6.00 Build 0)  -->
<svg version="1.1" id="Layer_1" xmlns="http://www.w3.org/2000/svg" xmlns:xlink="http://www.w3.org/1999/xlink" x="0px" y="0px"
	 viewBox="0 0 1546.7 98" style="enable-background:new 0 0 1546.7 98;" xml:space="preserve">
<style type="text/css">
	.st0{fill:#394856;}
</style>
<path class="st0" d="M1535.5,77.8L863.1,54.2c-5.3,0-9.4-3.5-11.2-8.8l-10-36.5c-1.2-5.3-5.9-8.8-11.2-8.8h-21.8
	c-5.3,0-10,3.5-11.2,8.8L788.3,43c-1.2,5.3-6.5,8.8-11.8,8.8h-2.9H773h-2.9c-5.3,0-10-3.5-11.8-8.8l-9.4-34.2
	C747.7,3.5,743,0,737.7,0h-21.8c-5.3,0-10,3.5-11.2,8.8l-10,36.5c-1.2,5.3-5.9,8.2-11.2,8.8L11.2,77.8C4.7,77.8,0,83.1,0,89.5V98
	h1546.7v-8.5C1546.7,83.1,1541.4,77.8,1535.5,77.8z"/>
</svg>
