<?xml version="1.0" encoding="utf-8"?>
<!-- Generator: Adobe Illustrator 27.2.0, SVG Export Plug-In . SVG Version: 6.00 Build 0)  -->
<svg version="1.1" xmlns="http://www.w3.org/2000/svg" xmlns:xlink="http://www.w3.org/1999/xlink" x="0px" y="0px"
	 viewBox="0 0 50 50" style="enable-background:new 0 0 50 50;" xml:space="preserve">
<style type="text/css">
	.st0{fill:#CB539F;}
	.st1{fill:none;stroke:#000000;stroke-width:3;stroke-linecap:round;}
</style>
<g id="Layer_2">
	<path class="st0" d="M18.8,6.2h12.5c2.3,0,4.2,1.9,4.2,4.2v29.2c0,2.3-1.9,4.2-4.2,4.2H18.8c-2.3,0-4.2-1.9-4.2-4.2V10.4
		C14.6,8.1,16.4,6.2,18.8,6.2z"/>
</g>
<g id="Layer_1">
	<path class="st1" d="M20.8,10.4h8.3 M18.8,6.2h12.5c2.3,0,4.2,1.9,4.2,4.2v29.2c0,2.3-1.9,4.2-4.2,4.2H18.8c-2.3,0-4.2-1.9-4.2-4.2
		V10.4C14.6,8.1,16.4,6.2,18.8,6.2z"/>
</g>
</svg>
