<svg width="50" height="50" viewBox="0 0 50 50" fill="none" xmlns="http://www.w3.org/2000/svg">
<path d="M9.53149 31.6292C8.31112 30.4087 8.31112 28.4302 9.53149 27.2098C10.7519 25.9894 12.7305 25.9894 13.9509 27.2098L22.7897 36.0485C24.0101 37.269 24.0101 39.2475 22.7897 40.4679C21.5695 41.6883 19.5907 41.6883 18.3703 40.4679L9.53149 31.6292Z" fill="#1CA8ED" stroke="#394856" stroke-width="3" stroke-linecap="round"/>
<path d="M33.4072 11.3104L34.8804 9.83721C35.6939 9.02362 37.0131 9.02362 37.8266 9.83721L40.7729 12.7835C41.5866 13.5971 41.5866 14.9162 40.7729 15.7298L39.2997 17.2029L33.4072 11.3104Z" fill="#1CA8ED" stroke="#394856" stroke-width="3" stroke-linecap="round"/>
<path d="M11.3104 33.4073L9.83725 34.8804C9.02365 35.694 9.02365 37.0131 9.83725 37.8267L12.7835 40.7729C13.5971 41.5867 14.9162 41.5867 15.7298 40.7729L17.2029 39.2998L11.3104 33.4073Z" fill="#1CA8ED" stroke="#394856" stroke-width="3" stroke-linecap="round"/>
<path d="M27.2093 13.9515C25.9888 12.7311 25.9888 10.7524 27.2093 9.53206C28.4295 8.31167 30.4082 8.31167 31.6286 9.53206L40.4674 18.3709C41.6878 19.5913 41.6878 21.57 40.4674 22.7902C39.247 24.0106 37.2684 24.0106 36.048 22.7902L27.2093 13.9515Z" fill="#1CA8ED" stroke="#394856" stroke-width="3" stroke-linecap="round"/>
<path d="M16.897 30.156L30.1553 16.8978L33.1015 19.844L19.8432 33.1023L16.897 30.156Z" fill="#1CA8ED" stroke="#394856" stroke-width="3" stroke-linecap="round"/>
</svg>
