<?xml version="1.0" encoding="UTF-8"?>
<svg id="Layer_1" data-name="Layer 1" xmlns="http://www.w3.org/2000/svg" viewBox="0 0 315 315">
  <defs>
    <style>
      .cls-1 {
        fill: #3f3f3f;
      }

      .cls-2 {
        fill: #9e9e9e;
      }
    </style>
  </defs>
  <path class="cls-2" d="m257.02754004,191.2834235l-.63483072-1.92378429c-.16004877-.48501009-.75601884-.67897337-1.15549422-.36074417-1.88215304,1.49935663-4.33111654,2.8326271-7.34620864,4.00110497-3.43800354,1.34399414-7.40701294,2.01600647-11.90701294,2.01600647-5.06199646,0-9.84298706-.68800354-14.34298706-2.06300354s-8.43800354-3.53100586-11.81300354-6.4690094c-3.3440094-2.93699646-6-6.70298767-7.9690094-11.29598999-1.93699646-4.62600708-2.9059906-10.17199707-2.9059906-16.64100647,0-6.46899414,1.0309906-12,3.09399414-16.59399414,2.0940094-4.625,4.82800293-8.40600586,8.20300293-11.3440094,3.40600586-2.93699646,7.25-5.09299469,11.53100586-6.46799469,4.2809906-1.375,8.67199707-2.06299591,13.17199707-2.06299591,2.625,0,4.98500061.2029953,7.07800293.61000061,2.125.40599823,3.98500061.92099762,5.57798767,1.54599762,1.5940094.59400177,2.93800354,1.23500061,4.03201294,1.92199707.56854598.34123474,1.08243936.65297764,1.5413945.93522655.49644842.30530658,1.12959549-.05540317,1.12959549-.63821801v-.00000384c0-1.38071187,1.11928813-2.5,2.5-2.5h10.4690094c1.38071187,0,2.5,1.11928813,2.5,2.5v20.54699707c0,1.38071155-1.11928845,2.49999909-2.5,2.49999797l-11.65305484-.00000948c-1.20260841-.00000098-2.25852846-.85383661-2.45379471-2.04048654-.39278641-2.38699704-1.32584737-4.37882424-2.79915631-5.97550842-1.84399414-2.06199646-4.42199707-3.09298706-7.73399353-3.09298706-1.68800354,0-3.26600647.31199646-4.73500061.93699646-1.46800232.59399414-2.76499939,1.6559906-3.88999939,3.18800354-1.125,1.5309906-2.01600647,3.59298706-2.67201233,6.18699646-.625,2.59399414-.93798828,5.875-.93798828,9.84399414,0,3.78100586.20298767,6.95300293.61000061,9.51499939.43699646,2.53199768,1.09298706,4.5940094,1.96798706,6.18800354.90701294,1.56199646,2.04701233,2.70300293,3.42201233,3.42199707,1.375.68699646,3.03199768,1.03100586,4.96899414,1.03100586.43699646,0,.98399353-.04699707,1.64100647-.14100647.68699646-.09300232,1.32798767-.25,1.92199707-.46800232.62399292-.25,1.1559906-.56298828,1.59300232-.93798828.46899414-.375.70298767-.88999939.70298767-1.54701233v-2.57798767c0-1.4690094-.5-2.57800293-1.5-3.32800293-.69567643-.54332737-1.81482285-.89790103-3.35743951-1.06339207-1.28090287-.13741453-2.26756025-1.19753493-2.26756028-2.4857876l-.00000017-10.5918268c-.00000002-1.38071187,1.11928809-2.5,2.49999996-2.5h34.56300354c1.38071155,0,2.4999991,1.11928845,2.49999799,2.5l-.00000849,10.58484835c-.00000104,1.29392569-.99428346,2.35886814-2.28183171,2.48717717-1.58817648.15826776-2.79633723.49893107-3.62416365,1.02198388-1.18798828.71899414-1.78198242,2.09399414-1.78198242,4.125v16.71899414c0,1.38071187-1.11928813,2.5-2.5,2.5h-10.08239048c-1.07884779,0-2.03600038-.69206886-2.37407827-1.7165765Z"/>
  <path class="cls-1" d="m44.9530983,177.43800354c.875.9059906,2.03130341,1.63999939,3.46880341,2.20300293,1.4375.5309906,3.23429871.79699707,5.3905983.79699707,2.5,0,4.5625-.32901001,6.1875-.98500061,1.65620041-.68699646,2.9530983-1.5940094,3.8905983-2.7190094.96879959-1.125,1.6405983-2.4059906,2.0155983-3.84298706.40630341-1.43800354.60940552-2.92201233.60940552-4.45300293v-22.36000061c0-1.68699646-.54679871-2.88999939-1.64060211-3.60900879-.81210326-.55684556-2.23570728-.90697314-4.27085109-1.05038273-1.31163958-.09242673-2.33855062-1.17660126-2.33855062-2.4914933v-12.47411518c0-1.38071187,1.11928813-2.5,2.5-2.5h38.54639816c1.38071187,0,2.5,1.11928813,2.5,2.5v12.50686422c0,1.29390516-.99424942,2.35881417-2.28177267,2.48716689-1.58779596.1582868-2.7958378.49894016-3.62402719,1.02196011-1.15619659.7190094-1.73429871,2.10900879-1.73429871,4.17201233v21.70298767c0,2.68701172-.42189789,5.5940094-1.26570129,8.71800232-.84369659,3.12600708-2.39059448,6-4.64059448,8.62600708-2.21870422,2.62399292-5.28120422,4.82800293-9.1875,6.60899353-3.90620422,1.75-8.92190552,2.625-15.04690552,2.625-5.78119659,0-10.5155983-.79699707-14.2030983-2.39099121-3.65619659-1.59300232-6.5155983-3.56201172-8.5780983-5.90600586-2.03120041-2.34399414-3.4375-4.81300354-4.21879959-7.40600586-.78120041-2.59399414-1.17179871-4.84399414-1.17179871-6.75,0-2.75.40619659-5.18798828,1.21869659-7.31298828s1.8594017-3.88999939,3.14070129-5.29701233c1.28120041-1.4059906,2.76560211-2.45298767,4.45310211-3.13999939,1.6875-.71899414,3.4530983-1.07798767,5.29689789-1.07798767,2.18740082,0,4.04679871.32798767,5.57810211.98399353,1.53119659.625,2.79689789,1.46899414,3.79689789,2.53100586,1,1.06298828,1.71870041,2.26599121,2.15620041,3.61000061.46879959,1.34298706.7030983,2.71798706.7030983,4.125,0,1.5309906-.2655983,2.93699646-.79689789,4.21798706-.5,1.28201294-1.18740082,2.39100647-2.06240082,3.32901001-.84379959.9059906-1.875,1.63999939-3.09379959,2.20300293-1.21879959.5309906-2.5.79699707-3.84379959.79699707-1.625,0-3-.20401001-4.125-.61000061-1.09370041-.40600586-2.03120041-.93699646-2.81240082-1.5940094-.75-.68699646-1.39070129,1.26600647-.51570129,2.20401001Z"/>
  <path d="m157.5,315C70.65429688,315,0,244.34570312,0,157.5S70.65429688,0,157.5,0s157.5,70.65429688,157.5,157.5-70.65429688,157.5-157.5,157.5Zm0-295c-75.81738281,0-137.5,61.68212891-137.5,137.5,0,75.81738281,61.68261719,137.5,137.5,137.5s137.5-61.68261719,137.5-137.5c0-75.81787109-61.68261719-137.5-137.5-137.5Z"/>
  <path d="m117.95999908,65.0490036c.45300293-.15960693.81500244-.33070374,1.08599854-.51320648.28300476-.18639374.4750061-.41579437.57800293-.68809891.11000061-.28719711.13199615-.6303978.06600189-1.02959824-.02901962-.17551988-.07157139-.36905706-.12774025-.58063684-.13486649-.50802202.13067294-1.0419755.62643152-1.21661446l3.95211519-1.39219636c.52090974-.18349886,1.09194569.09002696,1.27544414.61093684l2.51849685,7.14943317c.18349649.52090433-.09002192,1.09193471-.61092362,1.27543865l-21.73952192,7.65842727c-.52095383.1835223-1.09203837-.0900617-1.27549439-.61103888l-1.51871255-4.31282975c-.17130305-.48646526.06658613-1.01800227.53258078-1.23900491.51480148-.24414977.88378004-.50185063,1.10632267-.77301368.32699585-.41329956.36399841-.97910309.11000061-1.69760132l-2.95500183-8.38909912c-.25699615-.72949982-.63999939-1.1473999-1.15000153-1.25370026-.34691557-.07929455-.79888769-.05348723-1.35581971.07742077-.50064661.117678-1.01693115-.14740323-1.18780716-.63247697l-1.51992009-4.31466851c-.1834978-.52090383.09001911-1.09193488.6109203-1.27544017l21.73942956-7.65845903c.52091267-.18350934,1.09195872.09001561,1.27545931.61093136l2.51848675,7.1494015c.18349833.52090932-.09002711,1.09194458-.61093631,1.27544326l-3.95234056,1.39227575c-.49574936.17463571-1.0373807-.0749498-1.25066887-.55533841-.08878656-.19997382-.17677765-.37740365-.26380487-.53228916-.1989975-.35250092-.42899323-.6006012-.69099426-.74440002-.25099945-.14770126-.5450058-.20569992-.88200378-.17409897-.32899475.01669693-.72100067.10489655-1.17399597.26459885l-2.04077359.71898946c-.52092192.18352715-.79442121.75460816-.61086578,1.27552012l.88930351,2.52375442c.18354519.52088288.75459142.79435512,1.27547883.61082277l3.40168767-1.19856942c.52089529-.18353512,1.09194912.08994826,1.27548594.61084295l.36933723,1.04821366c.18354541.52091907-.08997061,1.0919973-.61090123,1.27550993l-3.40258011,1.19865558c-.52090326.18350298-.79442298.75453451-.61092592,1.27543985l1.0175171,2.88849354c.1834903.52088612.75448592.79441494,1.2753837.61095774l2.0418493-.71912758Z"/>
  <path d="m155.78631667,48.71425355l-2.0044342.16199815-2.0044342.16199815c-.21671918.01751522-.42435453-.03700158-.5990151-.14594686s-.31634638-.27231907-.40116646-.47251781c-.06967433-.16445061-.14961769-.32436455-.23983007-.47974461s-.19069378-.30622624-.3014442-.45254132c-.17849731-.24424934-.37449646-.46942425-.58812141-.67554903s-.44487572-.39319944-.69387627-.5612483c-.24849701-.16800117-.50849533-.31305122-.77986908-.4351387s-.55412292-.22121239-.84812164-.29736328c-.2950058-.08200073-.59200668-.13735104-.89113045-.16606331s-.60037041-.03078651-.90386772-.00623512c-.36800385.02974892-.69825363.09169865-.9906292.18584871s-.54687691.22050047-.76338387.37905073c-.21599579.15859985-.37324524.3403244-.4713707.54518652s-.13712692.4328618-.11662674.68401194c.01950073.23945045.08825302.45285034.20625496.64022541s.28525352.34872532.50175285.4840765c.21649933.12949944.46424866.2476244.74324799.35438681s.58924866.20216227.93074799.28621149c.34149933.07825089.70624924.15312576,1.09424973.22465038s.79925156.13969898,1.2337532.20454884c.43399811.06480026.87224579.14107513,1.3143692.2288003s.88812256.18690062,1.3376236.29750204c.45600128.11014938.90875244.2366991,1.35825348.37966156s.89575195.30233765,1.33875275.47813797c.44300079.16995049.86500168.37244987,1.26612663.6074996s.78137398.50264978,1.14087105.80280161c.35900116.29429817.68875122.62772274.98925018,1.00024796s.57174683.78415108.81374359,1.23485184c.24200439.45069885.43675613.95224857.58425713,1.50464869s.24775124,1.15565062.30075264,1.80975103c.05599976.69499969.03350067,1.34492397-.06749916,1.94976091s-.28050041,1.16458654-.53850365,1.67923689c-.25849915.51465034-.57125092.98965073-.93862724,1.42497587s-.78937721.83097506-1.26637459,1.18692446c-.47699738.35599899-.99524689.67269897-1.55474663.95012474s-1.16024971.51557732-1.802248.71447945c-.64250183.19884872-1.29950333.36214828-1.97112846.48989773s-1.35787392.21994877-2.05887032.27659702c-.68299866.05525208-1.35475159.06987762-2.01525307.04389s-1.30975151-.09258842-1.94774437-.19978905c-.63150024-.10765076-1.27773899-.25432491-1.92887878-.4701004-.46097119-.15275719-1.95326408-1.16190752-1.95326408-.21899223,0,.27606713-.06933852.53328954-.23513552.72816568s-.40591969.32651737-.68108963.34875621l-1.89440359.15310299-1.89440359.15310299c-.27525945.02224608-.53347468-.0691905-.72843144-.23500387s-.32665503-.40600354-.34888058-.68126465l-.30502471-3.77769981-.30502471-3.77769981c-.02222296-.27522914.06920975-.53341293.23500499-.72835135s.40595301-.32663146.68118016-.3488791l2.04791541-.16554069,2.04791541-.16554069c.20433088-.01651683.39724738.0369428.56008482.14127927s.29559584.25954977.37961052.44654027c.23114575.51445842.51689333.97449018.85745798,1.38009446s.73594636.75678107,1.18636039,1.05352955c.53949738.35025024,1.10349655.60007572,1.69174767.74947596s1.20075417.19837523,1.83725929.1469245c.42649841-.03450012.79549789-.10402489,1.1072464-.20859957s.56624603-.24419928.76374054-.41889906c.19700623-.18050003.34075928-.36697483.43113518-.55943727s.12737465-.39091253.11087227-.59536314c-.02600098-.32119942-.13675308-.5988245-.33212852-.83287477s-.47537422-.42452574-.83986855-.57142591c-.35850525-.14735031-.75875473-.28107548-1.2005043-.40115023s-.92499924-.22649908-1.44950485-.31924772c-.52549744-.09864998-1.07624435-.20257568-1.65236855-.31180096s-1.17762566-.22375011-1.80463219-.34359837c-.62149811-.12610054-1.2227478-.29060078-1.80349731-.49350119s-1.14099884-.44420099-1.68049622-.72390223c-.54049683-.28549957-1.04424667-.62542439-1.51124763-1.01976156s-.89725304-.84308672-1.29075432-1.34623575c-.38749695-.50360107-.69549561-1.09595108-.92387009-1.7770257s-.37712479-1.45087385-.44612503-2.30937338c-.05149841-.63660049-.03149796-1.2422514.06012726-1.81693935s.25487518-1.11841297.48987579-1.63116169c.23499298-.51280022.51974106-.98992538.8543663-1.4314003s.71912766-.84729958,1.1536293-1.21749878c.43399811-.37605095.90649796-.71257591,1.41737366-1.00958824s1.06012726-.55451202,1.64762878-.77251244c.59349823-.22430038,1.20649719-.40607548,1.83899689-.54535055s1.28450012-.23605013,1.95600128-.29035044c.92849731-.07505035,1.79574585-.09077549,2.60174561-.04716301s1.55075073.14656258,2.23425293.30886269c.68299866.16230011,1.29391.33173444,1.82749748.52245092.40281559.14397559,1.33260234.86560748,1.33260234-.03959188,0-.27605911.06935459-.53327263.23515117-.72814068s.40591394-.3265029.68107586-.34874146l1.89443039-.15310766,1.89443039-.15310766c.27525699-.02224624.53347047.06918824.72842699.23499887s.32665607.40599741.34888522.68125579l.29800656,3.6901461.29800656,3.6901461c.0222272.2752342-.06920583.53342339-.23500387.7283651s-.40596107.32663593-.68119389.34888022Z"/>
  <path d="m197.44367487,45.87005675l-1.56333086,8.15211442c-.10401792.54240981-.62805847.89779077-1.17046532.79375746l-3.73127104-.71565556c-.52922373-.1015048-.88229007-.6116596-.79654555-1.14366417.06184748-.38373464.11015609-.73624438.14493375-1.05750764.07600403-.58209991.07800293-1.05900192.0059967-1.43080139-.06999207-.38330078-.23298645-.68299866-.48999023-.8993988-.11536154-.10710332-.60418724-.26566139-1.08587506-.40267894-.56553818-.16086904-1.14773766.19565986-1.2584749.77311076l-1.98365297,10.34396561c-.14399719.74810028-.022995,1.30210114.36100769,1.66230011.26099758.23503881.66391291.43505277,1.20937234.59994623.49373396.14925675.80805939.63958602.71093377,1.14616022l-.86100405,4.49070399c-.10400112.54243444-.62806143.89783825-1.17048753.79379361l-13.86665146-2.65981087c-.54242504-.10404444-.89778662-.6281316-.79370002-1.17054855l.86176903-4.49085778c.09718131-.50643202.57050873-.84542621,1.08433136-.80179255.56421341.04791283,1.00711827.01024207,1.32842729-.11309203.49000549-.1923027.80700684-.66250229.94999695-1.41060257l1.98449078-10.34347698c.11080315-.5775234-.29823955-1.12438767-.88327473-1.18392299-.49529345-.05040287-1.00534011-.08359048-1.1572158-.02799706-.30699158.10809708-.56999207.32619858-.78799438.65429688-.20399475.31880188-.3789978.76260376-.52400208,1.33140182-.07907589.31034909-.15939156.65384918-.24060463,1.0305102-.11426081.52993434-.6330268.87813333-1.16543483.77601758l-3.74479767-.71825145c-.54242098-.10403624-.89778878-.6281099-.79371783-1.17052423l1.56413268-8.15220776c.10406335-.54237472.6280936-.89770538,1.17047288-.79366584l25.89890759,4.96794512c.54237738.10403918.89773082.6280507.79371814,1.17043316Z"/>
  <path d="m200.59399414,69.84120178c.23200989-.55059814.56300354-1.03420258.99301147-1.45050049.44099426-.41190338.91699219-.72620392,1.42799377-.94300079.52200317-.21220398,1.07699585-.32160187,1.66499329-.32800293.60301208-.01269531,1.19100952.10169983,1.76300049.3431015.55101013.2322998,1.03201294.56890106,1.44400024,1.00970459.41600037.42999268.73001099.90599823.94300842,1.42799377.21200562.52200317.31900024,1.0821991.32099915,1.68080139.01300049.60310364-.09700012,1.18000031-.33000183,1.73069763-.24099731.57220459-.58000183,1.05890656-1.01600647,1.4598999-.42599487.4056015-.89898682.71450043-1.42098999.92680359-.52200317.21219635-1.08300781.31929779-1.68099976.32109833-.60299683.01270294-1.18000793-.0970993-1.73100281-.32939911-.57200623-.24140167-1.06399536-.58249664-1.47599792-1.02330017-.40499878-.42549896-.71400452-.89920044-.92700195-1.42119598-.20100403-.51740265-.30999756-1.07230377-.32800293-1.66460419-.0059967-.58779907.11100769-1.1678009.35299683-1.74009705Z"/>
  <path d="m182,158c0-2.99153226-.55246682-5.85566196-1.55817141-8.49850656-.66712236-1.75310002-.3220707-3.7276278.9264439-5.12749323l45.42201837-50.92828994c.8821608-.9891005.83914288-2.49474535-.09805213-3.43186486l-1.20662339-1.20652619c-.93714423-.93706874-2.44269245-.98001858-3.43173394-.09789949l-51.17980791,45.64690767c-1.35077459,1.20474628-3.24741463,1.58829056-4.95524215.98884854-2.48021799-.87054862-5.14486503-1.34517595-7.91883135-1.34517595-2.9777698,0-5.82914071.54765087-8.46175947,1.54470042-1.75193995.66351079-3.72330015.3180476-5.12139743-.92889433l-51.47115441-45.9063483c-.98906637-.88213342-2.49465234-.83915388-3.431785.09796619l-1.20643587,1.20641967c-.93714142.93712883-.98013205,2.44273146-.09799106,3.43180767l46.13112654,51.72325057c1.20304916,1.34888561,1.58682281,3.24209382.99115266,4.94855118-.86217722,2.46993854-1.33175597,5.12223493-1.33175597,7.88254692,0,2.76032127.46958191,5.41262621,1.33175993,7.88257455.59566403,1.70644501.21189391,3.5996386-.9911402,4.9485193l-46.13121058,51.7238033c-.8821122.98905269-.83914496,2.4946056.09793904,3.43173992l1.20654215,1.20660695c.93712952.93717986,2.44276988.98018025,3.43185914.09801233l51.47109119-45.90702536c1.39809759-1.24696213,3.3694719-1.59243438,5.12142555-.92892111,2.63261183.99704286,5.48397378,1.54469013,8.46173379,1.54469013,2.77397152,0,5.43862334-.47462911,7.91884737-1.34517726,1.70782075-.59943787,3.60445236-.21589466,4.95522343.98884389l51.17994133,45.64685309c.9889886.88206856,2.49443808.83917576,3.43159983-.09777208l1.20638731-1.20611196c.93731162-.93709768.98039108-2.44283278.09819003-3.43198719l-45.42191915-50.92863042c-1.24850618-1.39986842-1.59355055-3.37439381-.9264237-5.12748851,1.00571691-2.64285116,1.55815355-5.50698872,1.55815355-8.49852956Zm-38,0c0-7.71972656,6.28027344-14,14-14s14,6.28027344,14,14-6.28027344,14-14,14-14-6.28027344-14-14Z"/>
  <path d="m218.8993633,258.90221028c.18624539.48407549-.03043039,1.02064596-.4935944,1.25408874-.20542406.10353733-.4136785.2170841-.62476304.34071026-.50900269.30899048-.94000244.65698242-1.29400635,1.04397583-.36000061.40200806-.61399841.85101318-.76199341,1.34802246-.08047856.2833207-.10161619.58319568-.06341347.89944975.05679971.4702058-.17936724.926061-.62139356,1.09615638l-5.83991223,2.24724647c-.51544046.19834575-1.09407836-.05871156-1.29242215-.57415277l-5.9158603-15.37370166c-.28199768-.73200989-.64199829-1.14601135-1.08000183-1.24101257-.25557982-.04593847-1.08179675.1690309-1.73888248.36036804-.50043228.14572114-1.02895049-.11353068-1.21614294-.59997298l-1.64784124-4.28211548c-.19834794-.51543119.05869332-1.09406417.57412119-1.29242074l12.94740607-4.98266243c.51546078-.19836924,1.09413146.05870844,1.29246278.57418381l1.65921226,4.31239519c.18130274.47121703-.01511664,1.00200228-.46051162,1.2397826-.66301447.35395952-1.51816973.85757093-1.59982645,1.13945138-.14100647.48199463-.13000488.93600464.03399658,1.36199951l2.67784732,6.95780437c.19836089.51539768.77695806.77242798,1.29237258.57411085l1.49646801-.57579913c.51545546-.19833288,1.09409429.05875367,1.29241478.5742139l1.3842639,3.59787822Z"/>
  <path d="m176.91798487,258.01762537c.02005308.77330935.86141774,1.22796212,1.52682731.83345029.21461687-.12724328.44001355-.25159376.67619002-.37307883.79100037-.39801025,1.81799316-.69699097,3.07899475-.89599609,3.102005-.49099731,5.60800171-.21099854,7.51899719.83898926,1.90000916,1.06399536,3.04299927,2.8170166,3.43000793,5.25900269.20999146,1.33099365.1230011,2.57901001-.26200867,3.74301147-.38598633,1.16500854-1.02198792,2.20300293-1.9099884,3.11398315-.88600159.92401123-2.00900269,1.70001221-3.3690033,2.33102417-1.36000061.62997437-2.91900635,1.08398438-4.67800903,1.36297607-1.86399841.29501343-3.6269989.28900146-5.28898621-.01797485-1.67300415-.30502319-3.16300964-.91101074-4.47000122-1.82000732-1.30500793-.89700317-2.40299988-2.10501099-3.29600525-3.625-.90499878-1.51800537-1.52600098-3.34799194-1.86500549-5.48901367-.34098816-2.15298462-.2869873-4.13699341.16200256-5.95199585.43800354-1.80200195,1.20100403-3.39299011,2.28700256-4.7749939,1.07699585-1.3690033,2.42900085-2.49700928,4.05700684-3.38299561,1.61599731-.88400269,3.41899109-1.48400879,5.4099884-1.79901123,1.65600586-.26199341,3.10400391-.33099365,4.3460083-.20700073,1.22799683.11399841,2.27200317.37600708,3.13200378.78601074.84799194.4119873,1.51300049.94099426,1.99499512,1.58898926.48399353.65901184.78799438,1.38200378.91299438,2.16900635.11500549.72900391.0980072,1.3730011-.05099487,1.92999268-.16099548.55900574-.42300415,1.04000854-.78599548,1.44100952-.36401367.4019928-.79400635.71899414-1.29100037.95199585-.49700928.23300171-1.02999878.39401245-1.59700012.48400879-1.2150116.19198608-2.19100952.09698486-2.92800903-.28399658-.73599243-.38200378-1.17300415-1.00700378-1.31098938-1.87501526-.07501221-.47499084-.06800842-.8789978.02198792-1.21398926.08900452-.33399963.24301133-.61057024.43499756-.852005.4727851-.59455702-.57704215-1.20729451-1.29499817-1.09399414-.75204752.11868033-1.44499207.38899231-2.07899475.80899048-.64500427.42300415-1.17100525.99299622-1.58000183,1.71000671-.40899658.71699524-.68600464,1.58499146-.83399963,2.60499573-.08163584.52803525-.11468591,1.09424502-.09901342,1.69862512Zm5.52500829,11.44938513c.90299988-.14300537,1.51499939-.58401489,1.83700562-1.32299805.31300354-.7250061.38499451-1.6210022.21600342-2.68600464-.16799927-1.06500244-.51400757-1.8999939-1.03700256-2.50500488-.53199768-.5920105-1.25-.8170166-2.15299988-.67401123s-1.51600647.57800293-1.83999634,1.30599976c-.32200623.73901367-.39900208,1.64102173-.23100281,2.70599365.16900635,1.06402588.51899719,1.89300537,1.05200195,2.48501587.53500366.60299683,1.25299072.83398438,2.1559906.69100952Z"/>
  <path d="m144.78221978,275.18399048c-.3532486-.03125-.70437241-.06925011-1.05340266-.11403131s-.69596696-.09634352-1.04084134-.15471792-.68768644-.12356091-1.02846742-.1955905-.67953086-.15090227-1.01628089-.23664904c-.33950043-.08274841-.66906357-.17499733-.98865807-.27670002s-.62922037-.21285915-.92884624-.33342266-.58925176-.25053406-.8688463-.38986492-.54915774-.28802204-.80865824-.4460268c-.26249886-.15849304-.51049805-.32711411-.74399745-.5058465s-.45249903-.36757612-.65699875-.56651449-.39449954-.40797138-.56999934-.62708235-.33649957-.44829988-.48299921-.68755007c-.14649963-.23950195-.27099943-.49137688-.37346816-.75562572s-.18290639-.54087162-.24128175-.82986927-.09468842-.59037018-.10890794-.90411854-.00634551-.63987255.02365327-.97837353c.03600121-.40850067.09918928-.79550171.18953323-1.16100287s.20784378-.70950246.35246849-1.03200364.3163743-.62350225.51521778-.90300298.42478085-.5375011.67778111-.77400088c.25049973-.23674774.52649975-.44699669.8280468-.63073063s.62864113-.34095287.98132896-.47164059.73096943-.23484421,1.13489151-.31245327.35836124-.53854752-.07615376-.67254829-.84292126-.29287624-1.22523403-.4766264-.73853207-.39237499-1.06867313-.62587452-.63420391-.49187374-.91220379-.77512264c-.28075027-.28374863-.52100039-.59324837-.72075045-.92852998s-.35900009-.69634509-.47775018-1.0832212-.19700027-.79956484-.23475063-1.23809695-.03500092-.90290761.00824821-1.39315724c.01850128-.21024704.0495019-.42080784.09303343-.63169765s.099594-.42210865.16821897-.63367176.14981246-.4234705.24359405-.63573742.20015728-.42489338.31915867-.63789463c.11849976-.21024704.25449944-.41449547.40798342-.61276031s.32445228-.39054608.51288927-.57685876.39434266-.36665678.61770141-.54104733.46417058-.34282756.72241986-.50532603c.25824928-.15950012.53656149-.30918789.83495224-.44903183s.61686003-.26984406.95542347-.38996887.69722104-.23037434,1.07598841-.33071709.77764452-.19077873,1.19664705-.27127647c.41874695-.08075333.8636198-.1445055,1.33460283-.19124126s.96807623-.07645512,1.49126387-.0891428,1.07246971-.0083437,1.64783049.01304722,1.17680025.05982876,1.80430269.11532879c.60974884.05374908,1.19274807.119874,1.74896622.19835877s1.08565521.1693294,1.58827972.27251792.97843647.21872091,1.4274044.34658122.87109184.26804852,1.26634026.42054868c.39250183.15224838.76350307.31068516,1.11300397.47530985s.67750144.3354373.98400187.51243734.59150076.36018753.85500121.54956198.50550103.38493586.72600198.58668375c.21724701.20450211.41693211.41187859.59907103.62211394s.34673166.42332959.49379396.63926721.27659416.43471861.38861132.65632749.2065196.44604564.28352308.67329478c.07674789.23025131.14155865.45800209.19444799.68325257s.09385729.44800067.12291956.6682508.04621887.4380002.05148554.65325046-.0013566.42800069-.01985407.63825154c-.04325104.49024963-.12150192.947999-.23475266,1.37324834s-.26150131.81799865-.44475174,1.17824817-.4015007.68799925-.65475082.98324943-.54150009.5580008-.86474991.78825212c-.32624817.22999954-.67343521.43093681-1.04156041.60282731s-.75718856.31473422-1.16718936.42854667-.84093904.19859362-1.29281402.25435901-.57705998.50189042-.19156027.64917135.74187493.31621814,1.06912541.50684333.62537622.40293837.89437699.63697124.50887656.48978543.71962714.7672894c.21074677.27749634.39068222.57136917.53979039.88161802s.26738906.63687372.35482669.97987413.144032.70237637.16976714,1.07812738.02061105.7678771-.01538825,1.17637777c-.02999878.33850098-.07837296.66106415-.14515376.96767378s-.15196824.59726572-.25559354.87195253-.22568846.53340435-.36622071.77613688-.29953361.46948004-.47703528.6802268c-.18024826.21050262-.37268448.40856552-.57729292.59417439s-.4213891.35876369-.65032625.51945019-.47003078.30890465-.72326517.44464016-.51860952.25898838-.79610968.3697443c-.2772522.11074829-.56425381.21037102-.8609736.29886866s-.60315776.16587019-.91928267.23211813-.64193678.12137127-.97740436.16537046-.68059087.07687426-1.03533864.09862566c-.35499954.02450562-.71274948.04182053-1.07320285.05193043s-.72361016.01301479-1.08942342.00870037-.73428297-.01584816-1.10536218-.03461552-.7447679-.04476833-1.12101912-.07801723Zm1.32200623-14.98898315c.45549774.03999329.85749817.0004921,1.20624924-.11863327s.64425278-.31787491.88675308-.59637833c.24199677-.27849579.43424606-.60999298.57686996-.99449158s.23562241-.8219986.27911758-1.3125c.04350281-.4905014.02900314-.94175339-.04349709-1.35400391s-.20300102-.78549957-.39150047-1.11999512c-.18849945-.32800293-.44374847-.58425522-.76562309-.768507s-.71037483-.29650307-1.16537666-.33650398c-.45549774-.04049683-.85774612.00200653-1.20699501.12713242s-.64549828.3328743-.88899803.62286758c-.2440033.29600525-.43775558.64075851-.58125687,1.03400993s-.23675156.83500099-.27975082,1.32499886c-.04349518.4905014-.02849579.9375.04475403,1.3409977s.20475006.76349449.39425659,1.07999229c.18999481.31700134.44624329.56475449.76874352.74325752s.71125221.28775597,1.16625404.32775688Zm-.83799744,9.89599609c.38549805.03399658.72424698-.00375366,1.0162468-.11325455s.53725052-.29075241.73575211-.54375839c.19300079-.25349426.34749985-.55448914.46349907-.90298843s.19349861-.74450302.23250008-1.18801498c.03799438-.42599487.03024292-.82073975-.02300644-1.18423843s-.15199661-.69575119-.2959938-.99676132c-.15050507-.29548645-.3595047-.52573395-.62725449-.69060898s-.59424973-.26437759-.9797554-.29837418c-.39099884-.03450012-.73424911.00574875-1.02962303.1208744s-.54287148.3051281-.74236488.57013512c-.20050049.27049255-.36025238.57974243-.47925377.92786789s-.19725227.7351265-.23475075,1.16112137c-.03900146.44400024-.03050232.8477478.02562332,1.21149445s.15987778.68749237.31138229.97148895c.15149689.28401184.36274338.50551605.63386726.66464233s.60212517.25587463.99313164.29037476Z"/>
  <path d="m119.66922082,251.05200195c-.47249985.16500092-.95574951.29850006-1.44974899.40037346s-.99874878.17212105-1.51424789.21061897c-1.03500366.08900452-2.09500122.0880127-3.18000031-.0019989-1.08800507-.07899475-2.16600037-.1539917-3.23300171-.22499084-1.06600189-.07099915-2.10179901-.08799744-3.1065979-.05101013-1.00859833.04800415-1.94450378.22599792-2.80770111.53500366-.8742981.30599976-1.65450287.80500793-2.3404007,1.4980011-.68589783.69200134-1.24340057,1.65899658-1.67230225,2.89900208-.35609436,1.02999878-.45119476,2.07600403-.28509521,3.13800049.16220093,1.07299805.59719849,2.11000061,1.30500031,3.11099243.70389557,1.01200867,1.68109894,1.95100403,2.93149567,2.81800842,1.25040436.86599731,2.78379822,1.61300659,4.60010529,2.24099731,1.70549774.58999634,3.33449554.95498657,4.88549805,1.09399414,1.54699707.15100098,2.94300079.07601929,4.18799591-.2250061,1.24100494-.28997803,2.2970047-.78097534,3.16899872-1.47097778.8710022-.69100952,1.49000549-1.56802368,1.85800171-2.63101196.27600098-.79800415.38200378-1.51699829.31900024-2.15899658-.07499695-.64599609-.2519989-1.20899963-.53199768-1.69099426-.29100037-.48500061-.65900421-.89100647-1.10400391-1.21800232-.4549942-.33100891-.92099762-.57901001-1.397995-.7440033-.63100433-.21800232-1.22499847-.33100891-1.77999878-.33700562-.55599976-.0059967-1.04600525.08500671-1.47100067.27301025-.43600464.18399048-.79800415.42498779-1.08700562.72200012-.30299377.30400085-.52199554.6499939-.65599823,1.0369873-.29899597.86401367-.27500153,1.60400391.06999969,2.2190094.34500122.61599731.4531521,1.71253265-.48500061,1.56199646-.63507365-.10190406-1.33100128-.27400208-2.08399963-.53399658-1.06299591-.36799622-1.88899994-.91999817-2.47699738-1.65699768-.59999847-.74000549-.73100281-1.5980072-.39399719-2.57200623.22599792-.6539917.60899353-1.1539917,1.15099335-1.5.53000641-.34899902,1.1760025-.62199402,1.93800354-.81700134.75099945-.19999695,1.59200287-.35499573,2.52300262-.46699524.92099762-.11599731,1.875-.27600098,2.86299896-.47900391.98799896-.20399475,1.99399567-.49499512,3.01699829-.8730011,1.00900269-.36999512,1.98000336-.9019928,2.91400146-1.59599304.91899872-.68701172,1.77799988-1.57400513,2.5759964-2.66200256.6268754-.8654582,1.18644253-1.91678188,1.67973775-3.15399778.20783453-.52126229-.08015017-1.10998187-.61047932-1.29345003l-2.37399791-.82128815c-.25159978-.08704132-.52728473-.07464713-.76231764.05040554-.76606903.40759813-2.08656034.37864003-2.529943.2253342-.58699799-.20300293-1.18199921-.50801086-1.78599548-.91500854-.61800385-.3999939-1.25800323-.82600403-1.9200058-1.27799988-.67699432-.44499207-1.38499451-.88800049-2.125-1.33000183-.75099945-.44599915-1.55899811-.81799316-2.42299652-1.11698914-1.08499908-.375-2.13500214-.63900757-3.14800262-.79100037-1.01399994-.15200806-1.97549438-.02600098-2.88430023.3789978-.92369843.41299438-1.79929352,1.16999817-2.6269989,2.27200317-.69729782.93431624-1.35949731,2.22104335-1.98647428,3.85963165-.20355198.53197789.06277388,1.12983222.77203597,1.37516258l1.27575261.44125668c.47038533.16269665.97164583-.05897881,1.21421262-.49359808.29502859-.52861776.65294655-.86309441,1.07377729-1.00346723.60269928-.20098877,1.32479858-.15499878,2.16699982.13600159.44300079.15299988.83300018.33100891,1.17199707.53500366s.69999695.41600037,1.08300018.63499451c.3789978.23001099.80400085.47000122,1.27600098.72000122.47100067.25,1.06700134.49900818,1.78700256.7480011.70899963.24501038,1.39699554.37200928,2.06399536.3789978.66300201.01901245,1.28199768-.03399658,1.85800171-.15699768.5719986-.11199951.9679985.58900452.50299835.75100708Z"/>
</svg>