<?xml version="1.0" encoding="UTF-8"?><svg id="Layer_2" xmlns="http://www.w3.org/2000/svg" viewBox="0 0 6.61118928 8.20370621"><defs><style>.cls-1{fill:#87b004;}.cls-2{fill:#0d61d5;}</style></defs><path class="cls-2" d="m2.69444444,0C.73611111,1.06944444.25817156,2.71331981.33343506,3.80548096c.13878716,2.01396349,1.28333844,2.4162639,2.05554199,2.41674127,1.36102295.00084136,1.6168419-.835642,1.61796739-1.34027778.0028963-1.29861111-.90972222-1.95138889-1.45138889-2.67361111-.3510463-.46806174.13888889-2.20833333.13888889-2.20833333Z"/><path class="cls-1" d="m3.05554199,1.73611111c.23203971.62205882,1.04772598.89918301,1.43057251,1.83333333.2787056.68004516.11110772,1.45833333.11110772,1.45833333,0,0,.61111111-.82777778.19444444-1.70138889-.10796722-.22637127-.51024627-.7771085-.51024627-.7771085.49112862.03895491.81004078.40024354,1.0796941.86737611-.1166687-.79330444-.78268433-1.39688449-2.30557251-1.68054538Z"/><path class="cls-1" d="m5.85185185,4s-.36562075,2.69629193-2.98148148,2.7962963c-1.44444444.05522112-2.87037037-1.16666667-2.87037037-1.16666667,0,0,1.22330235,1.46825494,2.77777778,1.53703704,2.09259259.09259259,3.16666667-1.12962963,3.16666667-1.12962963,0,0,.07800953,1.70759931-2.22222222,1.77777778-1.11359935.03397514-2-.5-2-.5,0,0,.70369716.89061634,1.94444444.88888889,2.48148148-.00345488,2.95152397-1.6803322,2.94444444-2.57407407-.00970912-1.22570958-.75925926-1.62962963-.75925926-1.62962963Z"/></svg>