<svg width="50" height="50" viewBox="0 0 50 50" fill="none" xmlns="http://www.w3.org/2000/svg">
<path d="M31.25 18.75C31.25 11.8464 25.6535 6.25 18.75 6.25C11.8464 6.25 6.25 11.8464 6.25 18.75C6.25 25.6535 11.8464 31.25 18.75 31.25M31.25 18.75C24.3465 18.75 18.75 24.3465 18.75 31.25L31.25 18.75ZM31.25 18.75C38.1535 18.75 43.75 24.3465 43.75 31.25C43.75 38.1535 38.1535 43.75 31.25 43.75C24.3465 43.75 18.75 38.1535 18.75 31.25" fill="#E17FB3"/>
<path d="M31.25 18.75C31.25 11.8464 25.6535 6.25 18.75 6.25C11.8464 6.25 6.25 11.8464 6.25 18.75C6.25 25.6535 11.8464 31.25 18.75 31.25M31.25 18.75C24.3465 18.75 18.75 24.3465 18.75 31.25M31.25 18.75C38.1535 18.75 43.75 24.3465 43.75 31.25C43.75 38.1535 38.1535 43.75 31.25 43.75C24.3465 43.75 18.75 38.1535 18.75 31.25" stroke="#394856" stroke-width="3" stroke-linecap="round"/>
<rect x="23.2422" y="36.4701" width="18" height="3.94254" rx="1.97127" transform="rotate(-45 23.2422 36.4701)" fill="#394856"/>
<rect x="23.2422" y="36.4701" width="18" height="3.94254" rx="1.97127" transform="rotate(-45 23.2422 36.4701)" fill="#394856"/>
<rect x="13.7876" y="11" width="15.0935" height="3.94254" rx="1.97127" transform="rotate(45 13.7876 11)" fill="#394856"/>
<rect x="13.7876" y="11" width="15.0935" height="3.94254" rx="1.97127" transform="rotate(45 13.7876 11)" fill="#394856"/>
</svg>
