<?xml version="1.0" encoding="utf-8"?>
<!-- Generator: Adobe Illustrator 27.2.0, SVG Export Plug-In . SVG Version: 6.00 Build 0)  -->
<svg version="1.1" id="Layer_1" xmlns="http://www.w3.org/2000/svg" xmlns:xlink="http://www.w3.org/1999/xlink" x="0px" y="0px"
	 viewBox="0 0 50 50" style="enable-background:new 0 0 50 50;" xml:space="preserve">
<style type="text/css">
	.st0{fill:#FFFFFF;}
	.st1{fill:none;stroke:#FFFFFF;stroke-width:4;stroke-linecap:round;stroke-miterlimit:10;}
	.st2{fill:#FFFFFF;}
</style>
<path class="st0" d="M-178.8,18.8c0-6.9-5.6-12.5-12.5-12.5c-6.9,0-12.5,5.6-12.5,12.5c0,6.9,5.6,12.5,12.5,12.5 M-178.8,18.8
	c-6.9,0-12.5,5.6-12.5,12.5 M-178.8,18.8c6.9,0,12.5,5.6,12.5,12.5s-5.6,12.5-12.5,12.5s-12.5-5.6-12.5-12.5"/>
<line class="st1" x1="-183.4" y1="35.9" x2="-174.1" y2="26.6"/>
<path class="st1" d="M-191.2,31.2c-6.9,0-12.5-5.6-12.5-12.5c0-6.9,5.6-12.5,12.5-12.5c6.9,0,12.5,5.6,12.5,12.5
	c6.9,0,12.5,5.6,12.5,12.5s-5.6,12.5-12.5,12.5S-191.2,38.2-191.2,31.2s5.6-12.5,12.5-12.5"/>
<line class="st1" x1="-195.9" y1="14.1" x2="-187.6" y2="22.4"/>
<path class="st1" d="M-151.2,31.2"/>
<path class="st2" d="M-106.9,16.9c-0.9-7.1-7-12.6-14.4-12.6c-8,0-14.5,6.5-14.5,14.5c0,7.4,5.5,13.5,12.6,14.4
	c0.9,7.1,7,12.6,14.4,12.6c8,0,14.5-6.5,14.5-14.5C-94.2,23.9-99.8,17.8-106.9,16.9z M-120.3,22.5l-7-7c-0.8-0.8-0.8-2,0-2.8
	c0.8-0.8,2-0.8,2.8,0l7,7C-118.5,20.5-119.5,21.5-120.3,22.5z M-102.7,28l-9.2,9.2c-1,1-2.2,0.6-2.8,0c-0.8-0.8-0.8-2,0-2.8l9.2-9.2
	c0.8-0.8,2-0.8,2.8,0C-101.9,26-101.9,27.3-102.7,28z"/>
<path class="st2" d="M-57.3,31.2c0-4.4,1.5-8.4,4.1-11.6l-4.1-4.1c-0.8-0.8-0.8-2,0-2.8c0.8-0.8,2-0.8,2.8,0l4.1,4.1
	c3.2-2.6,7.2-4.1,11.6-4.1c0.2,0,0.5,0,0.7,0c-2.3-5-7.3-8.5-13.2-8.5c-8,0-14.5,6.5-14.5,14.5c0,5.9,3.5,10.9,8.5,13.2
	C-57.2,31.7-57.3,31.5-57.3,31.2z"/>
<path class="st2" d="M-24.3,29.8c0-0.2,0-0.3-0.1-0.5c0-0.3-0.1-0.6-0.1-0.9c0-0.2-0.1-0.4-0.1-0.6c-0.1-0.2-0.1-0.5-0.2-0.7
	c-0.1-0.2-0.1-0.4-0.2-0.6c-0.1-0.2-0.1-0.4-0.2-0.6c-0.1-0.2-0.2-0.4-0.3-0.7c-0.1-0.2-0.2-0.4-0.3-0.5c-0.1-0.2-0.2-0.5-0.4-0.7
	c-0.1-0.2-0.2-0.3-0.3-0.5c-0.1-0.2-0.3-0.4-0.4-0.7c-0.1-0.1-0.2-0.3-0.3-0.4c-0.2-0.2-0.3-0.4-0.5-0.6c-0.1-0.1-0.2-0.2-0.3-0.4
	c-0.2-0.2-0.4-0.4-0.6-0.6c-0.1-0.1-0.2-0.2-0.3-0.3c-0.2-0.2-0.4-0.4-0.7-0.6c-0.1-0.1-0.2-0.2-0.3-0.2c-0.2-0.2-0.5-0.4-0.8-0.5
	c-0.1-0.1-0.2-0.1-0.2-0.1c-0.9-0.6-1.8-1-2.8-1.4c-0.2-0.1-0.4-0.1-0.5-0.2c-0.2-0.1-0.4-0.1-0.7-0.2c-0.2-0.1-0.4-0.1-0.7-0.2
	c-0.2,0-0.4-0.1-0.7-0.1c-0.8-0.1-1.6-0.2-2.4-0.2c-3.3,0-6.3,1.1-8.7,2.9l0,0c-1.1,0.8-2,1.8-2.8,2.8l0,0c-1.8,2.4-2.9,5.5-2.9,8.7
	c0,0.7,0.1,1.4,0.2,2.1c0.1,0.4,0.1,0.7,0.2,1.1c0,0,0,0,0,0c0.8,3.4,2.8,6.4,5.5,8.4c0,0,0,0,0,0c0.3,0.2,0.7,0.5,1,0.7
	c0,0,0.1,0,0.1,0.1c0.3,0.2,0.7,0.4,1,0.6c0,0,0.1,0,0.1,0.1c0.3,0.2,0.7,0.3,1,0.5c0.1,0,0.1,0,0.2,0.1c0.4,0.1,0.7,0.3,1.1,0.4
	c0.1,0,0.1,0,0.2,0c0.4,0.1,0.7,0.2,1.1,0.3c0,0,0.1,0,0.1,0c0.8,0.2,1.7,0.2,2.6,0.2c8,0,14.5-6.5,14.5-14.5
	C-24.3,30.8-24.3,30.3-24.3,29.8z M-32.7,28l-9.2,9.2c-1,1-2.2,0.6-2.8,0c-0.8-0.8-0.8-2,0-2.8l9.2-9.2c0.8-0.8,2-0.8,2.8,0
	C-31.9,26-31.9,27.3-32.7,28z"/>
<g>
	<path class="st2" d="M18.4,21.3l-5.7-5.7c-0.8-0.8-0.8-2,0-2.8c0.8-0.8,2-0.8,2.8,0l5.7,5.7c2.8-2.2,6.2-3.4,10-3.4
		c0.5,0,1,0,1.5,0.1c-1.6-6.2-7.3-10.8-14-10.8c-8,0-14.5,6.5-14.5,14.5c0,6.7,4.6,12.4,10.8,14c0-0.5-0.1-1-0.1-1.5
		C15,27.5,16.3,24,18.4,21.3z"/>
	<path class="st2" d="M31.2,16.8c-8,0-14.5,6.5-14.5,14.5c0,8,6.5,14.5,14.5,14.5c8,0,14.5-6.5,14.5-14.5
		C45.7,23.2,39.3,16.8,31.2,16.8z M37.3,28L28,37.3c-1,1-2.2,0.6-2.8,0c-0.8-0.8-0.8-2,0-2.8l9.2-9.2c0.8-0.8,2-0.8,2.8,0
		C38.1,26,38.1,27.3,37.3,28z"/>
</g>
</svg>
