<?xml version="1.0" encoding="utf-8"?>
<!-- Generator: Adobe Illustrator 19.0.0, SVG Export Plug-In . SVG Version: 6.00 Build 0)  -->
<svg version="1.1" id="layer" xmlns="http://www.w3.org/2000/svg" xmlns:xlink="http://www.w3.org/1999/xlink" x="0px" y="0px"
	 viewBox="-153 -46 652 652" style="enable-background:new -153 -46 652 652;" xml:space="preserve">
<path d="M-34.8,234.6c0-1.3,1.1-2.3,2.4-2.4h14.9c1.3,0,2.4,1.1,2.4,2.4c0,0,0,0,0,0v31.2h35.7v-31.2c0-1.3,1.1-2.4,2.4-2.4
	c0,0,0,0,0,0h14.9c1.3,0,2.3,1.1,2.4,2.4v82c0,1.3-1.1,2.3-2.4,2.4H22.9c-1.3,0-2.4-1.1-2.4-2.4c0,0,0,0,0,0v-32.6h-35.7v32.6
	c0,1.3-1.1,2.4-2.4,2.4c0,0,0,0,0,0h-14.9c-1.3,0-2.3-1.1-2.4-2.4V234.6z M109.6,231.1c-24.6-0.1-44.7,19.7-44.9,44.3
	c0,0.1,0,0.3,0,0.4c0,24.8,19.9,44.5,44.8,44.5c25,0,45-19.7,45-44.5c0-24.7-20-44.7-44.7-44.7C109.7,231,109.6,231,109.6,231.1
	C109.5,231,109.6,231.1,109.6,231.1z M109.5,300.4c-13.6,0-24.9-11.2-24.9-24.6c0.2-13.8,11.6-24.7,25.4-24.5
	c13.4,0.2,24.2,11.1,24.5,24.5C134.5,289.3,123.3,300.4,109.5,300.4z M179.1,316.6c0,1.3,1.1,2.4,2.4,2.4c0,0,0,0,0,0h14.9
	c1.3,0,2.3-1.1,2.4-2.4V285h8.6l16.6,32.8c0.4,0.7,1.2,1.1,2,1.1h16.6c1.3,0.1,2.4-0.9,2.5-2.2c0-0.5-0.1-1-0.4-1.4l-17.1-31.5
	c10.9-4.3,18.5-13.5,18.5-24.9c0-14.7-12.2-26.8-27.2-26.8h-37.3c-1.3,0-2.4,1-2.4,2.3c0,0,0,0,0,0
	C179.1,234.6,179.1,316.6,179.1,316.6z M198.7,269.3V250h18.5c5.2,0,9.4,4.2,9.5,9.4c0,5.2-4.4,9.9-9.5,9.9H198.7z M277,316.6
	c0,1.3,1.1,2.3,2.4,2.4h14.9c1.3,0,2.4-1,2.4-2.3c0,0,0,0,0,0v-46.2h0.1l49.3,49.2c0.5,0.3,1,0.6,1.6,0.6h2c1.3,0,2.3-1,2.4-2.2
	v-83.4c0-1.3-1.1-2.3-2.4-2.4h-15c-1.3,0-2.4,1-2.4,2.4c0,0,0,0,0,0v44h-0.1L283.4,232c-0.6-0.6-1.5-0.9-2.3-0.9h-1.8
	c-1.3,0-2.3,1-2.4,2.2L277,316.6L277,316.6z M382.9,316.6c0,1.3,1.1,2.4,2.4,2.4c0,0,0,0,0,0H437c1.3,0,2.4-1.1,2.4-2.4l0,0v-13.5
	c0-1.3-1.1-2.4-2.4-2.4l0,0h-34.6v-16.7h28.5c1.3,0,2.4-1.1,2.4-2.4v-13.5c0-1.3-1.1-2.3-2.4-2.4h-28.5v-15.4H437
	c1.3,0,2.4-1.1,2.4-2.4c0,0,0,0,0,0v-13.5c0-1.3-1.1-2.4-2.4-2.4c0,0,0,0,0,0h-51.7c-1.3,0-2.4,1-2.4,2.3c0,0,0,0,0,0L382.9,316.6
	L382.9,316.6z M-61.7,232.3h-67c-1.3,0-2.4,1-2.4,2.4c0,0,0,0,0,0v13.5c0,1.3,1.1,2.4,2.4,2.4c0,0,0,0,0,0h23.6v67.2
	c0.1,0.7,0.7,1.3,1.4,1.3h1.5c0.6,0,1.9-0.7,2.8-1.5c0.9-0.8,1.3-1.3,1.3-1.3l0.1-0.1l10.5-10.5c1.3-1.3,2.1-3.1,2.1-5v-50.1h23.6
	c1.3,0,2.4-1,2.4-2.4c0,0,0,0,0,0v-13.5C-59.3,233.3-60.4,232.3-61.7,232.3C-61.7,232.3-61.7,232.3-61.7,232.3L-61.7,232.3z
	 M457.3,229.7c6.4,0,11.6,5.2,11.6,11.6c0,6.4-5.2,11.6-11.6,11.6c-6.4,0-11.6-5.2-11.6-11.6C445.7,235,450.9,229.8,457.3,229.7
	L457.3,229.7z M457.3,250.5c5,0,9.1-4.1,9.1-9.1c0-5-4.1-9.1-9.1-9.1c-5,0-9.1,4.1-9.1,9.1c0,2.4,1,4.7,2.7,6.4
	C452.6,249.5,454.9,250.5,457.3,250.5L457.3,250.5L457.3,250.5z M452.9,236.1c0-0.3,0.3-0.6,0.6-0.6h5c2.2,0,3.9,1.7,4,3.9
	c0,0,0,0.1,0,0.1c0.1,1.6-0.9,3-2.3,3.6l1.5,3.4c0.2,0.3,0,0.7-0.3,0.8c-0.1,0-0.2,0.1-0.3,0.1h-1.7c-0.3,0-0.5-0.2-0.6-0.5
	l-1.4-3.6h-1.7v3.5c0,0.3-0.3,0.6-0.6,0.6h-1.6c-0.3,0-0.6-0.3-0.6-0.6c0,0,0,0,0,0C452.9,246.6,452.9,236.1,452.9,236.1z
	 M458.2,240.8c0.7,0,1.3-0.5,1.3-1.2c0,0,0-0.1,0-0.1c0-0.7-0.5-1.3-1.2-1.3c0,0-0.1,0-0.1,0h-2.5v2.7L458.2,240.8z"/>
</svg>
